HIERARCHY
ROOT pelvis
{
	OFFSET 0.000000 0.000000 0.747927
	CHANNELS 6 Xposition Yposition Zposition Xrotation Yrotation Zrotation
	JOINT spine
	{
		OFFSET 0.000000 0.000000 0.000000
		CHANNELS 6 Xposition Yposition Zposition Xrotation Yrotation Zrotation
		JOINT spine.001
		{
			OFFSET 0.000000 -0.012703 0.242384
			CHANNELS 3 Xrotation Yrotation Zrotation
			JOINT neck
			{
				OFFSET 0.000000 0.029580 0.240908
				CHANNELS 6 Xposition Yposition Zposition Xrotation Yrotation Zrotation
				JOINT face
				{
					OFFSET 0.000000 0.003583 0.205291
					CHANNELS 6 Xposition Yposition Zposition Xrotation Yrotation Zrotation
					End Site
					{
						OFFSET 0.000000 -0.039307 -0.007370
					}
				}
			}
			JOINT shoulder.L
			{
				OFFSET 0.000000 0.029580 0.240908
				CHANNELS 6 Xposition Yposition Zposition Yrotation Xrotation Zrotation
				JOINT upper_arm.L
				{
					OFFSET 0.166616 0.000000 0.000000
					CHANNELS 6 Xposition Yposition Zposition Xrotation Yrotation Zrotation
					JOINT forearm.L
					{
						OFFSET 0.270299 0.000113 0.000934
						CHANNELS 6 Xposition Yposition Zposition Xrotation Yrotation Zrotation
						End Site
						{
							OFFSET 0.221017 -0.003755 -0.001285
						}
					}
				}
			}
			JOINT shoulder.R
			{
				OFFSET 0.000000 0.029580 0.240908
				CHANNELS 6 Xposition Yposition Zposition Yrotation Xrotation Zrotation
				JOINT upper_arm.R
				{
					OFFSET -0.166616 0.000000 0.000000
					CHANNELS 6 Xposition Yposition Zposition Xrotation Yrotation Zrotation
					JOINT forearm.R
					{
						OFFSET -0.270059 0.000113 0.000934
						CHANNELS 6 Xposition Yposition Zposition Xrotation Yrotation Zrotation
						End Site
						{
							OFFSET -0.227122 -0.003861 -0.001286
						}
					}
				}
			}
		}
	}
	JOINT pelvis.L
	{
		OFFSET 0.000000 0.000000 0.000000
		CHANNELS 6 Xposition Yposition Zposition Yrotation Xrotation Zrotation
		End Site
		{
			OFFSET 0.100005 0.000000 0.000000
		}
	}
	JOINT pelvis.R
	{
		OFFSET 0.000000 0.000000 0.000000
		CHANNELS 6 Xposition Yposition Zposition Yrotation Xrotation Zrotation
		End Site
		{
			OFFSET -0.100005 0.000000 0.000000
		}
	}
	JOINT thigh.L
	{
		OFFSET 0.100005 0.000000 0.000000
		CHANNELS 6 Xposition Yposition Zposition Xrotation Yrotation Zrotation
		JOINT shin.L
		{
			OFFSET 0.019004 0.000000 -0.362610
			CHANNELS 6 Xposition Yposition Zposition Xrotation Yrotation Zrotation
			JOINT foot.L
			{
				OFFSET 0.016952 0.000000 -0.323469
				CHANNELS 3 Xrotation Yrotation Zrotation
				End Site
				{
					OFFSET 0.015017 -0.153116 -0.064296
				}
			}
			JOINT heel.02.L
			{
				OFFSET 0.016952 0.000000 -0.323469
				CHANNELS 3 Xrotation Yrotation Zrotation
				End Site
				{
					OFFSET 0.080024 0.033584 -0.056795
				}
			}
		}
	}
	JOINT thigh.R
	{
		OFFSET -0.100005 0.000000 0.000000
		CHANNELS 6 Xposition Yposition Zposition Xrotation Yrotation Zrotation
		JOINT shin.R
		{
			OFFSET -0.018104 0.000000 -0.345446
			CHANNELS 6 Xposition Yposition Zposition Xrotation Yrotation Zrotation
			JOINT foot.R
			{
				OFFSET -0.017207 0.000000 -0.328329
				CHANNELS 3 Xrotation Yrotation Zrotation
				End Site
				{
					OFFSET -0.015899 -0.162110 -0.068073
				}
			}
			JOINT heel.02.R
			{
				OFFSET -0.017207 0.000000 -0.328329
				CHANNELS 3 Xrotation Yrotation Zrotation
				End Site
				{
					OFFSET -0.077238 0.033584 -0.069279
				}
			}
		}
	}
}
MOTION
Frames: 10
Frame Time: 0.041667
-0.016408 -0.011867 0.733009 -0.000000 0.000000 -9.906415 0.000000 0.000000 -0.000000 -9.733701 -0.465160 -0.064273 9.995249 0.259263 2.112006 -0.000000 0.029580 0.240908 10.785458 1.062988 2.770419 -0.000000 0.003583 0.205291 0.228260 -0.000000 -0.000000 0.000000 0.029580 0.240908 1.079758 0.001249 -0.132572 0.166616 0.000000 -0.000000 15.658164 77.719951 -19.387439 0.270299 0.000113 0.000934 1.356726 8.412209 -17.715183 0.000000 0.029580 0.240908 1.129647 0.001367 -0.138710 -0.166616 0.000000 0.000000 20.919824 -78.507560 25.474966 -0.270059 0.000113 0.000934 1.548271 -12.735220 12.478190 0.000000 -0.000000 0.000000 -1.381881 -0.000001 -0.000075 0.000000 -0.000000 0.000000 -1.381882 -0.000000 0.000000 0.099976 0.000000 0.002412 7.750908 1.704774 0.291560 0.019004 0.000000 -0.362610 -1.460615 -1.713415 -0.098316 -4.082553 -3.426251 6.482613 -21.359784 49.683291 43.960563 -0.099976 0.000000 -0.002412 6.396242 -4.225111 -0.099567 -0.018104 0.000000 -0.345446 -4.135809 2.618141 0.311020 -3.277230 1.031114 -1.551386 -8.130042 -45.950101 -35.213600 
-0.015178 -0.012856 0.734070 -0.000000 0.000000 -10.111584 0.000000 0.000000 0.000000 -9.876252 -0.690065 -0.096225 9.994800 0.270562 2.204184 -0.000000 0.029580 0.240908 10.912118 1.237066 4.152678 -0.000000 0.003583 0.205291 0.320311 0.000000 0.000002 0.000000 0.029580 0.240908 1.378994 0.002037 -0.169318 0.166616 -0.000000 -0.000000 15.929424 77.818408 -19.686564 0.270299 0.000113 0.000934 1.310138 8.096422 -17.841448 -0.000000 0.029580 0.240908 1.428801 0.002187 -0.175437 -0.166616 0.000000 0.000000 23.313478 -79.048006 28.089713 -0.270059 0.000113 0.000934 1.413125 -12.207323 11.822354 0.000000 0.000000 0.000000 -1.731358 -0.000000 0.000025 0.000000 0.000000 0.000000 -1.731324 -0.000000 0.000000 0.099959 0.000000 0.003021 8.207033 2.270493 0.268215 0.019004 0.000000 -0.362610 -2.162093 -2.381247 -0.158093 -4.758609 -3.755984 6.931311 -21.819297 49.926357 44.195128 -0.099959 0.000000 -0.003021 6.282014 -4.349845 -0.090923 -0.018104 -0.000000 -0.345446 -3.469116 2.914454 0.269781 -4.587135 1.091024 -1.350712 -8.759455 -45.764105 -34.213398 
-0.014324 -0.013399 0.734710 -0.000000 0.000000 -10.222029 0.000000 0.000000 0.000000 -9.959048 -0.838713 -0.117568 9.994732 0.273320 2.226563 -0.000000 0.029580 0.240908 10.994534 1.363161 5.206642 -0.000000 0.003583 0.205291 0.413303 0.000000 0.000000 0.000000 0.029580 0.240908 1.570254 0.002641 -0.192772 0.166616 -0.000000 0.000000 16.218646 77.931530 -20.001459 0.270299 0.000113 0.000934 1.268071 7.838420 -17.890735 0.000000 0.029580 0.240908 1.620102 0.002812 -0.198874 -0.166616 0.000000 0.000000 25.033530 -79.398067 29.953200 -0.270059 0.000113 0.000934 1.338558 -11.908398 11.442312 0.000000 -0.000000 0.000000 -1.945926 0.000000 0.000014 0.000000 -0.000000 0.000000 -1.945893 -0.000000 0.000002 0.099947 -0.000000 0.003396 8.484163 2.661526 0.248300 0.019004 -0.000000 -0.362610 -2.554127 -2.783385 -0.195690 -5.628845 -4.099682 7.320434 -22.004988 50.014805 44.235283 -0.099947 0.000000 -0.003396 6.202785 -4.441074 -0.084815 -0.018104 -0.000000 -0.345446 -3.009346 3.141573 0.239949 -5.595207 1.125981 -1.178700 -9.214491 -45.635100 -33.493516 
-0.013896 -0.013493 0.734919 -0.000000 0.000000 -10.233564 0.000000 0.000000 -0.000000 -9.977165 -0.899329 -0.126212 9.994800 0.269695 2.196981 -0.000000 0.029580 0.240908 11.014778 1.419548 5.838567 0.000000 0.003583 0.205291 0.491072 0.000000 -0.000000 0.000000 0.029580 0.240908 1.639475 0.002879 -0.201255 0.166616 -0.000000 -0.000000 16.510405 78.064684 -20.311022 0.270299 0.000113 0.000934 1.233076 7.644869 -17.875198 0.000000 0.029580 0.240908 1.689364 0.003057 -0.207386 -0.166617 0.000000 -0.000000 25.835121 -79.568255 30.808996 -0.270059 0.000113 0.000934 1.316880 -11.812483 11.338618 0.000000 -0.000000 0.000000 -2.022534 -0.000001 -0.000053 0.000000 -0.000000 0.000000 -2.022535 -0.000000 0.000001 0.099943 -0.000000 0.003529 8.583466 2.859452 0.236359 0.019004 -0.000000 -0.362610 -2.642163 -2.913162 -0.205417 -6.544642 -4.409159 7.605977 -21.942615 49.966638 44.107091 -0.099943 0.000000 -0.003529 6.160895 -4.499183 -0.081106 -0.018104 -0.000000 -0.345446 -2.774060 3.293484 0.224839 -6.237507 1.139374 -1.053833 -9.462969 -45.601208 -33.169987 
-0.013682 -0.013464 0.734977 -0.000000 0.000000 -10.208665 0.000000 0.000000 0.000000 -9.971799 -0.916155 -0.128530 9.994760 0.268685 2.188780 0.000000 0.029580 0.240908 10.997222 1.419101 6.111868 0.000000 0.003583 0.205291 0.523019 -0.000000 0.000001 0.000000 0.029580 0.240908 1.647349 0.002907 -0.202250 0.166616 -0.000000 0.000000 16.762170 78.203077 -20.568538 0.270299 0.000113 0.000934 1.205661 7.494676 -17.858213 0.000000 0.029580 0.240908 1.697156 0.003086 -0.208399 -0.166616 0.000000 -0.000000 26.158556 -79.671083 31.134912 -0.270059 0.000113 0.000934 1.307586 -11.741604 11.329050 0.000000 -0.000000 0.000000 -2.046420 -0.000001 -0.000034 0.000000 -0.000000 0.000000 -2.046386 -0.000000 -0.000001 0.099941 -0.000000 0.003571 8.619254 2.956366 0.230041 0.019004 -0.000000 -0.362610 -2.630759 -2.937140 -0.205077 -7.220357 -4.627479 7.787688 -21.830632 49.893436 43.961884 -0.099941 0.000000 -0.003571 6.137513 -4.542162 -0.078488 -0.018104 -0.000000 -0.345446 -2.648305 3.402838 0.217157 -6.619549 1.149031 -0.984283 -9.602885 -45.634761 -33.091362 
-0.013500 -0.013560 0.735067 -0.000000 0.000000 -10.195183 0.000000 0.000000 0.000000 -9.981882 -0.930628 -0.130643 9.994642 0.274204 2.233887 -0.000000 0.029580 0.240908 10.988500 1.397554 6.184553 0.000000 0.003583 0.205291 0.496243 0.000000 0.000001 0.000000 0.029580 0.240908 1.646392 0.002904 -0.202108 0.166616 -0.000000 0.000000 16.944880 78.321089 -20.748277 0.270299 0.000113 0.000934 1.186419 7.388582 -17.847836 0.000000 0.029580 0.240908 1.696280 0.003083 -0.208270 -0.166616 0.000000 0.000000 26.345879 -79.769281 31.302730 -0.270059 0.000113 0.000934 1.290357 -11.621380 11.297447 0.000000 0.000000 0.000000 -2.076935 -0.000001 -0.000034 0.000000 0.000000 0.000000 -2.076901 0.000000 0.000000 0.099939 0.000000 0.003624 8.676479 3.032410 0.225802 0.019004 0.000000 -0.362610 -2.650903 -2.966935 -0.207333 -7.618668 -4.761944 7.902900 -21.782991 49.852946 43.843811 -0.099939 0.000000 -0.003624 6.121766 -4.571306 -0.076722 -0.018104 0.000000 -0.345446 -2.544171 3.477812 0.210274 -6.853752 1.167252 -0.966995 -9.708959 -45.665945 -33.043140 
-0.013316 -0.013778 0.735175 -0.000000 0.000000 -10.189158 0.000000 0.000000 -0.000000 -10.014037 -0.951801 -0.133886 9.994376 0.281434 2.292711 -0.000000 0.029580 0.240908 11.010838 1.387552 6.205856 0.000000 0.003583 0.205291 0.434445 0.000000 -0.000001 0.000000 0.029580 0.240908 1.645256 0.002900 -0.202011 0.166616 -0.000000 -0.000000 17.059557 78.405442 -20.856917 0.270299 0.000113 0.000934 1.176155 7.353261 -17.780355 0.000000 0.029580 0.240907 1.695145 0.003078 -0.208118 -0.166616 0.000000 -0.000000 26.366811 -79.847766 31.286143 -0.270059 0.000113 0.000934 1.274209 -11.510984 11.264412 0.000000 0.000000 0.000000 -2.110834 -0.000000 -0.000006 0.000000 0.000000 0.000000 -2.110800 -0.000000 0.000000 0.099937 -0.000000 0.003683 8.753386 3.103443 0.222368 0.019004 -0.000000 -0.362610 -2.684309 -2.999052 -0.210696 -7.910757 -4.857745 7.980298 -21.764832 49.818645 43.684080 -0.099937 0.000000 -0.003683 6.116659 -4.578473 -0.076273 -0.018104 0.000000 -0.345446 -2.457128 3.507772 0.203715 -6.989671 1.196280 -0.994271 -9.783443 -45.653008 -32.939776 
-0.013158 -0.014008 0.735260 -0.000000 0.000000 -10.165303 0.000000 0.000000 0.000000 -10.053374 -0.971084 -0.136941 9.994186 0.283905 2.312897 -0.000000 0.029580 0.240908 11.046199 1.398774 6.241319 0.000000 0.003583 0.205291 0.375562 0.000000 0.000000 0.000000 0.029580 0.240908 1.634075 0.002862 -0.200673 0.166616 -0.000000 0.000000 17.122178 78.466934 -20.910551 0.270299 0.000113 0.000934 1.173759 7.398754 -17.609671 -0.000000 0.029580 0.240908 1.683964 0.003039 -0.206790 -0.166616 0.000000 -0.000000 26.161373 -79.885005 31.026862 -0.270059 0.000113 0.000934 1.269766 -11.461432 11.278594 0.000000 0.000000 0.000000 -2.129014 0.000000 -0.000005 0.000000 0.000000 0.000000 -2.129048 0.000000 0.000000 0.099936 -0.000000 0.003715 8.814445 3.156570 0.219831 0.019004 0.000000 -0.362610 -2.687629 -3.009707 -0.211203 -8.184564 -4.932252 8.022085 -21.718837 49.760322 43.455450 -0.099936 -0.000000 -0.003715 6.124231 -4.570363 -0.076802 -0.018104 0.000000 -0.345446 -2.405632 3.502785 0.199340 -7.052397 1.235464 -1.058805 -9.824161 -45.617932 -32.827484 
-0.013036 -0.014182 0.735341 -0.000000 0.000000 -10.115526 0.000000 0.000000 -0.000000 -10.088170 -0.983378 -0.138979 9.994464 0.280788 2.287536 -0.000000 0.029580 0.240908 11.071141 1.420019 6.278725 -0.000000 0.003583 0.205291 0.333892 0.000000 0.000001 0.000000 0.029580 0.240908 1.612452 0.002786 -0.197915 0.166616 -0.000000 0.000000 17.125461 78.528782 -20.892166 0.270299 0.000113 0.000934 1.175889 7.493286 -17.377857 0.000000 0.029580 0.240908 1.662259 0.002959 -0.204009 -0.166616 0.000000 0.000000 25.842222 -79.888754 30.652291 -0.270059 0.000113 0.000934 1.275340 -11.459741 11.338741 0.000000 0.000000 -0.000000 -2.131235 0.000001 0.000046 0.000000 0.000000 -0.000000 -2.131235 -0.000000 0.000002 0.099936 0.000000 0.003719 8.845983 3.187458 0.218228 0.019004 -0.000000 -0.362610 -2.670629 -3.007962 -0.209827 -8.383691 -4.972874 8.025833 -21.646813 49.688895 43.221150 -0.099936 0.000000 -0.003719 6.138581 -4.563907 -0.077333 -0.018104 -0.000000 -0.345446 -2.382439 3.489939 0.197152 -7.069741 1.284713 -1.154044 -9.862254 -45.609824 -32.771541 
-0.012944 -0.014306 0.735428 -0.000000 0.000000 -10.052932 0.000000 0.000000 0.000000 -10.118136 -0.991000 -0.140319 9.994510 0.276037 2.248716 -0.000000 0.029580 0.240908 11.087379 1.437603 6.285414 -0.000000 0.003583 0.205291 0.299140 -0.000000 -0.000001 -0.000000 0.029580 0.240908 1.589188 0.002706 -0.195087 0.166616 -0.000000 0.000000 17.030696 78.605396 -20.750221 0.270299 0.000113 0.000934 1.179841 7.590538 -17.174125 -0.000000 0.029580 0.240908 1.638995 0.002879 -0.201188 -0.166616 0.000000 -0.000000 25.548121 -79.877246 30.314531 -0.270059 0.000113 0.000934 1.285082 -11.480839 11.414163 0.000000 -0.000000 0.000000 -2.125630 -0.000001 -0.000073 0.000000 -0.000000 0.000000 -2.125631 -0.000000 0.000000 0.099936 0.000000 0.003709 8.859648 3.202128 0.217429 0.019004 -0.000000 -0.362610 -2.661631 -3.007800 -0.209119 -8.472219 -4.978887 8.004257 -21.570728 49.624972 43.045748 -0.099936 0.000000 -0.003709 6.154081 -4.565348 -0.077450 -0.018104 0.000000 -0.345446 -2.369683 3.482037 0.195936 -7.052221 1.342446 -1.274547 -9.926270 -45.649962 -32.784529 
